 <svg  version="1.0" xmlns="http://www.w3.org/2000/svg"  width="300.000000pt" height="254.000000pt" viewBox="0 0 300.000000 254.000000"  preserveAspectRatio="xMidYMid meet">  <g transform="translate(0.000000,254.000000) scale(0.100000,-0.100000)" fill="#ff7b00" stroke="none"> <path d="M371 2494 c-82 -22 -132 -47 -174 -89 -61 -59 -94 -111 -118 -183 -21 -62 -23 -85 -23 -327 l-1 -260 90 -24 c74 -19 117 -24 240 -25 180 -1 271 16 390 75 97 47 160 97 211 167 64 86 88 154 88 247 1 98 -16 135 -111 238 -37 40 -89 100 -116 135 l-49 62 -186 -1 c-130 0 -203 -5 -241 -15z m539 -225 c20 -83 9 -195 -25 -258 -32 -57 -98 -122 -157 -152 -97 -50 -368 -99 -460 -84 l-38 7 0 167 c0 127 4 179 16 214 19 57 90 132 136 146 18 5 142 10 275 10 l241 1 12 -51z"/> <path d="M920 2502 c0 -4 39 -47 88 -94 l87 -87 465 -3 c519 -3 492 0 566 -76 87 -90 104 -173 104 -521 l0 -257 -217 -73 c-405 -137 -523 -194 -637 -309 -68 -68 -111 -151 -127 -245 -15 -89 -5 -158 33 -230 37 -69 144 -173 214 -207 48 -25 53 -25 315 -25 l265 0 76 38 c133 65 221 180 247 324 15 79 15 1249 0 1329 -11 60 -14 68 -67 186 -54 118 -155 205 -280 240 -61 16 -112 18 -599 18 -293 0 -533 -3 -533 -8z m1310 -1439 c0 -183 -13 -300 -39 -350 -31 -61 -101 -120 -166 -138 -46 -14 -95 -16 -278 -13 -214 3 -223 4 -255 26 -38 27 -72 89 -72 130 0 156 146 281 435 372 55 17 156 51 225 75 69 24 131 44 138 44 9 1 12 -35 12 -146z"/> <path d="M1252 1711 c-6 -17 -7 -31 -2 -31 13 0 -26 -106 -50 -137 -40 -51 -31 -56 84 -51 116 5 152 20 195 83 35 52 38 96 8 131 -24 28 -29 29 -125 32 l-99 4 -11 -31z m137 -40 c33 -21 -14 -121 -58 -121 -19 0 -19 2 2 65 21 64 29 73 56 56z"/> <path d="M1566 1715 c-4 -14 -4 -30 -1 -34 7 -13 -29 -117 -48 -136 -10 -9 -17 -25 -17 -36 0 -18 8 -19 111 -19 l110 0 15 35 c7 19 14 39 14 45 0 16 -60 12 -66 -5 -9 -22 -56 -20 -52 2 2 10 12 19 23 21 43 9 64 52 24 52 -32 0 -20 34 14 38 15 2 27 -2 27 -8 0 -7 13 -10 32 -8 26 2 33 9 44 41 l13 37 -118 0 -119 0 -6 -25z"/> <path d="M1821 1710 c-5 -16 -6 -30 -2 -30 5 0 12 -42 17 -92 l9 -93 36 -3 c36 -3 38 -1 105 92 38 53 74 96 80 96 10 0 23 30 24 53 0 13 -100 8 -102 -5 0 -7 -2 -25 -3 -40 -2 -24 -48 -98 -61 -98 -2 0 -4 20 -4 45 0 33 4 45 15 45 8 0 15 3 15 8 0 4 3 17 6 30 6 21 4 22 -59 22 -63 0 -65 -1 -76 -30z"/> <path d="M1100 1681 c-113 -43 -120 -47 -120 -69 1 -24 160 -98 172 -80 15 25 8 35 -42 58 -27 13 -50 26 -50 29 0 4 31 17 69 30 63 22 81 35 81 62 0 12 -2 12 -110 -30z"/> <path d="M2055 1535 c-3 -8 -7 -22 -10 -30 -3 -12 5 -15 39 -15 40 0 45 3 55 30 l10 30 -45 0 c-31 0 -46 -5 -49 -15z"/> <path d="M52 1132 c4 -360 5 -380 26 -436 45 -122 145 -235 246 -282 81 -37 179 -44 625 -44 l404 0 -39 43 c-22 23 -54 66 -73 95 -32 50 -34 52 -80 52 -709 4 -713 4 -763 28 -59 29 -121 98 -144 160 -16 41 -19 94 -24 392 l-5 345 -55 7 c-30 4 -70 10 -88 12 l-33 5 3 -377z"/> <path d="M1201 1460 c-45 -17 -77 -60 -46 -60 19 0 19 -6 -1 -63 -11 -34 -21 -47 -35 -47 -10 0 -19 -4 -19 -9 0 -5 -3 -16 -6 -25 -5 -14 5 -16 70 -16 42 0 76 4 76 9 0 5 3 16 6 25 4 11 1 16 -10 16 -9 0 -16 1 -16 3 0 2 14 43 30 92 17 49 30 90 30 92 0 8 -39 -1 -79 -17z"/> <path d="M1367 1440 c-4 -17 5 -26 51 -49 l56 -28 -58 -22 c-31 -11 -61 -21 -66 -21 -13 0 -40 -30 -40 -45 0 -11 24 -5 96 21 53 19 105 39 115 45 38 20 22 43 -56 82 -42 20 -79 37 -84 37 -5 0 -11 -9 -14 -20z"/> <path d="M2703 770 c-62 -37 -82 -123 -43 -185 62 -101 219 -79 250 35 32 117 -102 214 -207 150z"/> <path d="M2053 269 c-34 -10 -63 -51 -63 -89 0 -12 8 -38 17 -57 29 -61 41 -63 435 -63 200 0 368 4 387 10 54 15 81 47 81 95 0 49 -18 77 -64 99 -30 14 -81 16 -398 15 -199 0 -378 -5 -395 -10z"/> </g> </svg> 